<?xml version="1.0" encoding="utf-8"?>
<!-- Generator: Adobe Illustrator 21.0.0, SVG Export Plug-In . SVG Version: 6.00 Build 0)  -->
<svg version="1.1" id="Laag_1" xmlns="http://www.w3.org/2000/svg" xmlns:xlink="http://www.w3.org/1999/xlink" x="0px" y="0px"
	 viewBox="0 0 217.2 96.4" style="enable-background:new 0 0 217.2 96.4;" xml:space="preserve">
<style type="text/css">
	.st0{fill:#9D9D9C;}
	.st1{fill:#9EC6B7;}
	.st2{fill:#3C3C3B;}
</style>
<g>
	<path class="st0" d="M37.9,62.1h-0.2v8.1l-7.9,24.6v-8.9l8.3-23.7L37.9,62.1h-0.2H37.9L37.7,62l-8.3,23.7l0,0.1v10.3
		c0,0.1,0.1,0.2,0.2,0.2c0.1,0,0.2,0,0.2-0.1l8.3-25.9l0-0.1v-8.1c0-0.1-0.1-0.2-0.2-0.2c-0.1,0-0.2,0-0.2,0.1L37.9,62.1z"/>
	<path class="st0" d="M23.7,74.3l-3.2,3.2V66.2l16.7-3.7L23.7,74.3c0,0-0.1,0.1-0.1,0.2L25,91.3c0,0.1,0.1,0.2,0.2,0.2
		c0.1,0,0.2,0,0.2-0.1l4.4-5.5l0-0.1l8.3-23.7c0-0.1,0-0.2-0.1-0.3c-0.1,0-0.2,0-0.3,0.1L24.3,83l0.4,0.2l12.4-19.4l-7.7,21.9
		l-4.1,5L24,74.6l14-12.3c0.1-0.1,0.1-0.2,0.1-0.3c0-0.1-0.1-0.1-0.2-0.1l-17.7,3.9c-0.1,0-0.2,0.1-0.2,0.2v12.1
		c0,0.1,0.1,0.2,0.1,0.2s0.2,0,0.2,0l3.6-3.6L23.7,74.3L23.7,74.3z"/>
	<path class="st0" d="M58.9,45.3l-13.5-2.6l15.1-0.6l-1.9,3.3l-3.1,4.2l-3.2,3.5l-5,3.8l-9.5,4.9l-16.5-1.3c-0.1,0-0.1,0-0.2,0.1
		l-3.7,5.2c0,0.1-0.1,0.2,0,0.2s0.1,0.1,0.2,0.1h2.5v-0.4l-2.1,0l3.4-4.7l16.4,1.3l0.1,0l9.6-5l0,0l5-3.9l0,0l3.2-3.5l0,0l3.1-4.2
		l0,0l2.1-3.7c0-0.1,0-0.2,0-0.2c0-0.1-0.1-0.1-0.2-0.1l-17.4,0.7c-0.1,0-0.2,0.1-0.2,0.2c0,0.1,0.1,0.2,0.2,0.2l15.3,3L58.9,45.3
		L58.9,45.3z"/>
	<path class="st0" d="M52.7,53.1l-8.2-9.8l11.1,6.6l0.2-0.4l-12.2-7.2c-0.1-0.1-0.2,0-0.3,0c-0.1,0.1-0.1,0.2,0,0.3l9,10.7
		L52.7,53.1L52.7,53.1z"/>
	<path class="st0" d="M42.8,59.7l1-15.9l3.6,13.3l0.4-0.1l-3.9-14.6c0-0.1-0.1-0.2-0.2-0.2c-0.1,0-0.2,0.1-0.2,0.2l-1.1,17.2
		L42.8,59.7L42.8,59.7z"/>
	<path class="st0" d="M38.1,62.2L48.3,27c0-0.1,0-0.2-0.1-0.3c-0.1,0-0.2,0-0.3,0.1L28.4,61.3l0.4,0.2l18.6-32.9l-9.7,33.4
		L38.1,62.2L38.1,62.2z"/>
	<path class="st0" d="M21.6,60.9l9.1-16.3l17.4-17.4l11.7,13.6l-13.1-8.7l-0.2,0.4l14.4,9.5c0.1,0.1,0.2,0,0.3,0
		c0.1-0.1,0.1-0.2,0-0.3l-12.8-15c0,0-0.1-0.1-0.2-0.1c-0.1,0-0.1,0-0.2,0.1L30.4,44.4l0,0l-9.2,16.3L21.6,60.9L21.6,60.9z"/>
	<path class="st0" d="M57.4,25.9l3.3,16c0,0.1,0.1,0.2,0.2,0.2c0.1,0,0.2-0.1,0.2-0.2l3.9-16.8L64.7,25L61,40.9l-3.1-15L57.4,25.9
		L57.4,25.9z"/>
	<path class="st0" d="M53.3,23.8l16.8,0.9c0.1,0,0.1,0,0.2-0.1l4.2-5.6l21.1-5.7c0.1,0,0.2-0.1,0.2-0.2c0-0.1-0.1-0.2-0.2-0.2
		l-18.9,1.2l-5.2-1.3l0,0l-5.4-0.7l-0.1,0L59.4,13l-0.1,0.1L55,17.6l0,0.1l-1.8,5.7L48,26.7c-0.1,0.1-0.1,0.2-0.1,0.3
		c0,0.1,0.1,0.2,0.2,0.1l21.6-2.4l-8.9,16.9L45.2,37l-0.1,0.4l15.8,4.6c0.1,0,0.2,0,0.3-0.1l9.2-17.4c0-0.1,0-0.2,0-0.2
		c0-0.1-0.1-0.1-0.2-0.1L49,26.6l4.4-2.9l0.1-0.1l1.8-5.8l4.2-4.4l6.5-0.9l5.4,0.7l5.2,1.3l0.1,0l16.7-1.1l-19,5.1l-0.1,0.1
		l-4.2,5.6l-16.7-0.9L53.3,23.8L53.3,23.8z"/>
	<path class="st0" d="M59.2,13.4l10,10.4l-14-6.3L55.1,18l15,6.7c0.1,0,0.2,0,0.3-0.1c0.1-0.1,0.1-0.2,0-0.3L59.6,13.1L59.2,13.4
		L59.2,13.4z"/>
	<path class="st0" d="M71.2,13l-1.2,10.4l-3.8-11.2l-0.4,0.1L70,24.5c0,0.1,0.1,0.2,0.2,0.1c0.1,0,0.2-0.1,0.2-0.2l1.3-11.4L71.2,13
		L71.2,13z"/>
	<polyline class="st0" points="76.5,14.2 74.2,18.7 74.6,18.9 76.9,14.4 	"/>
	<polyline class="st0" points="75.6,16.8 95.6,13.3 95.5,12.9 75.5,16.3 	"/>
	<path class="st0" d="M4.8,6.4L48,27.1c0.1,0,0.2,0,0.3-0.1c0.1-0.1,0-0.2,0-0.3C23,5.8,6.4,0,6.3,0L6.3,0H2C1.9,0,1.9,0,1.8,0.1
		L0.1,1.6C0,1.6,0,1.7,0,1.8c0,0.1,0,0.1,0.1,0.2L4.8,6.4L9,14.2l0,0l8.5,8.7l4.6,7.3l0.1,0.1l6.6,4.1l5.5,6.4l0.3-0.3l-5.5-6.4l0,0
		l-6.6-4.1l-4.6-7.2l0,0l-8.5-8.7L5.1,6.1l0-0.1L0.5,1.8L2,0.4h4.2V0.2L6.2,0.4c0,0,0.1,0,0.2,0.1c1.9,0.7,17.9,7,41.6,26.6l0.1-0.2
		l0.1-0.2L5,6L4.8,6.4L4.8,6.4z"/>
	<path class="st0" d="M17.7,23l30.4,4.1c0.1,0,0.2-0.1,0.2-0.2c0-0.1,0-0.2-0.1-0.3L9.2,13.9l-0.1,0.4l36.7,12.1l-28.1-3.8L17.7,23
		L17.7,23z"/>
	<path class="st0" d="M29,34.4l19.2-7.3c0.1,0,0.2-0.1,0.1-0.3c0-0.1-0.1-0.2-0.2-0.2l-25.9,3.2l0.1,0.4l24.1-2.9L28.8,34L29,34.4
		L29,34.4z"/>
</g>
<polygon class="st1" points="106.4,29.5 86.8,48.1 86.8,29.5 84,29.5 84,54.3 94.9,44.2 110.1,29.5 "/>
<polygon class="st2" points="115.1,29.5 115.1,32.2 126.9,32.2 126.9,64.3 129.7,64.3 129.7,32.2 141.6,32.2 141.6,29.5 "/>
<polygon class="st2" points="173.6,29.5 173.6,60.4 153.2,29.5 149.7,29.5 149.7,64.3 152.5,64.3 152.5,33.8 172.7,64.2 172.8,64.3 
	176.4,64.3 176.4,29.5 "/>
<path class="st2" d="M212.9,33.6c-2.8-3.3-6.6-5-11.3-5c-4.7,0-8.5,1.7-11.3,5c-2.8,3.3-4.2,7.8-4.2,13.3c0,5.3,1.4,9.7,4.2,12.9
	c2.8,3.2,6.6,4.9,11.3,4.9c4.7,0,8.5-1.6,11.3-4.9c2.8-3.2,4.2-7.6,4.2-12.9C217.2,41.4,215.7,36.9,212.9,33.6z M210.9,57.9
	c-2.3,2.7-5.4,4.1-9.2,4.1c-3.8,0-7-1.4-9.2-4.1c-2.3-2.7-3.5-6.4-3.5-11c0-4.7,1.2-8.5,3.5-11.4c2.3-2.8,5.4-4.2,9.2-4.2
	c3.8,0,6.9,1.4,9.2,4.2c2.3,2.8,3.5,6.7,3.5,11.4C214.4,51.5,213.2,55.2,210.9,57.9L210.9,57.9z"/>
<g>
	<polygon class="st2" points="86.3,54.5 84.2,56.4 84,56.4 84,64.3 86.8,64.3 86.8,54.2 86.3,54.2 	"/>
	<polygon class="st2" points="96.2,45.3 95.8,45.6 95.9,45.6 94.3,47 94.1,47.2 107.1,64.2 107.2,64.3 110.6,64.3 	"/>
</g>
</svg>
