<?xml version="1.0" encoding="utf-8"?>
<!-- Generator: Adobe Illustrator 26.0.3, SVG Export Plug-In . SVG Version: 6.00 Build 0)  -->
<svg version="1.1" id="Laag_1" xmlns="http://www.w3.org/2000/svg" xmlns:xlink="http://www.w3.org/1999/xlink" x="0px" y="0px"
	 viewBox="0 0 730.8 311.2" style="enable-background:new 0 0 730.8 311.2;" xml:space="preserve">
<style type="text/css">
	.st0{fill:#902C35;}
	.st1{fill:#1D1D1B;}
</style>
<path class="st0" d="M168.7,81.7c-2.1,0-3.7,0-5.3,0c-7.3,0.3-14.6,0.7-21.9,0.8c-14.1,0.2-26.9,4.2-38.4,12.5
	c-7.4,5.4-14.3,11.3-20.8,17.7c-1,1-1.2,1.8-0.6,3.1c0.9,2,1.7,4.2,2.3,6.3c1,3.2-0.4,5.6-3.7,5.9c-5.4,0.5-10.8,0-13.9-5.3
	c-3.6-6.4-9.1-10.6-15.4-13.9c-6.3-3.4-11.4-8.2-16.4-13.1c-2.3-2.3-4.8-4.3-7.3-6.4c-0.5-0.4-1.1-0.7-1.6-0.9
	c-2.8-1.2-4.9,0.2-4.5,3.3c0.5,3.5,1.1,7,2.1,10.3c2.7,8.9,5.8,17.6,8.4,26.5c3.6,12,6.9,24,10.3,36.1c2.6,8.9,5,17.9,7.9,26.6
	c1.1,3.2,3.4,6.2,5.6,8.8c2.3,2.7,5.9,3.3,9.3,4c3.1,0.6,6,1.2,7.5,4.5c1.6,3.5,1.1,6.7-2.2,8.6c-2.2,1.3-4.7,2-7.2,2.6
	c-1.4,0.3-1.9,0.9-1.8,2.2c0.7,11.2,0.7,22.5-0.8,33.7c-1.1,7.7-3.1,15.4-5.5,22.9c-2,6.5-4.9,12.7-7.8,18.9
	c-1.1,2.3-3.1,4.3-5.1,6.1c-0.8,0.7-2.6,1-3.6,0.6c-0.7-0.3-1.2-1.9-1.3-3c-0.3-5.2,1.3-10,3.1-14.7c5.1-13.8,9.4-27.8,11.4-42.5
	c1-7.1,0.9-14.3-0.5-21.4c-0.5-2.4-1.7-5.1-3.4-6.9c-5.1-5.3-7.7-11.8-9.6-18.5c-4.3-15.1-8.2-30.4-12.4-45.6
	c-3.6-12.9-7.5-25.8-11.1-38.7c-2.2-7.9-4-16-3.2-24.3c0.2-1.9,0.6-3.9,1.4-5.7c2.6-5.9,8.2-7.9,14.5-4.9c4.6,2.2,9.1,4.7,13.2,7.7
	c7.8,5.6,15.9,10.8,24.8,14.5c0.1,0,0.1,0,0.2,0.1c3.9,2,3.8,1.9,7.2-0.9C84.4,89.8,96.5,81,110,74.4c5.1-2.5,10.8-3.8,16.5-4.8
	c15.6-2.8,31.5-2.5,47.3-2.4c10.4,0.1,19.9-2.3,28-9c3.6-3,7.3-5.9,10.9-9c7.1-6.2,13.9-12.8,21.3-18.5c9.7-7.6,20.7-13.2,32.4-17.3
	c2.5-0.9,5.3-1.4,8-1.4c3.7-0.1,6.7,2.1,8.4,5.3c2.4,4.6,4.7,9.3,6.2,14.2c2.5,8.2,4.3,16.6,6.7,24.8c3.1,10.6,0.6,20-5.1,28.9
	c-1.9,3-3.8,6-5.9,8.7c-0.9,1.2-2.4,2.1-3.8,2.8c-1.8,0.9-3,0.1-2.8-1.9c0.2-2.1,0.6-4.3,1.2-6.4c1.6-5.8,3.5-11.4,4.9-17.2
	c0.6-2.4,0.3-5.1-0.1-7.5c-1.4-9.3-3.5-18.5-6.9-27.3c-0.6-1.6-1.4-3.1-2.3-4.5c-3.3-5.3-6.1-6.4-11.5-3.4
	c-6.2,3.5-12.5,7.1-18,11.5c-7.2,5.7-13.8,12.1-20.4,18.6c-9.9,9.8-21.7,16-35,19.6c-2.2,0.6-4.3,1.2-6.5,1.5
	c-1.7,0.2-2.1,1.1-2,2.5c0.7,6.5-1.4,12.4-5.1,17.6c-1.5,2.2-3.6,4.2-5.8,5.8c-3.6,2.6-7.7,0.7-8.6-3.7c-1.5-7.3-0.1-13.7,5.6-18.8
	C167.9,83,168.1,82.6,168.7,81.7z"/>
<g>
	<path class="st0" d="M98.5,247.6c-2.8,0-5,1-6.5,3c-1.5,2-2.3,4.7-2.3,8.2c0,1.7,0.2,3.2,0.5,4.6c0.4,1.4,0.9,2.6,1.6,3.5
		c0.7,1,1.6,1.7,2.6,2.3c1.1,0.5,2.3,0.8,3.7,0.8c0.9,0,1.6,0,2.3-0.1c0.6-0.1,1.1-0.2,1.5-0.3v-11.1h5v14.8c-0.7,0.3-1.9,0.6-3.5,1
		c-1.7,0.4-3.6,0.5-5.7,0.5c-2,0-3.8-0.4-5.5-1.1c-1.7-0.7-3.1-1.7-4.2-3.1c-1.2-1.4-2.1-3-2.7-5c-0.6-2-1-4.3-1-6.8
		c0-2.6,0.4-4.9,1.1-6.8c0.7-2,1.7-3.7,2.9-5c1.2-1.4,2.7-2.4,4.3-3.1c1.6-0.7,3.4-1.1,5.3-1.1c1.3,0,2.4,0.1,3.4,0.3
		c1,0.2,1.9,0.4,2.6,0.6c0.7,0.2,1.3,0.5,1.8,0.8c0.5,0.3,0.8,0.5,1,0.6l-1.5,4.6c-0.8-0.5-1.8-1-3-1.4
		C101.1,247.8,99.8,247.6,98.5,247.6z"/>
	<path class="st0" d="M111.4,262.7c0-2,0.3-3.8,0.8-5.4c0.5-1.5,1.3-2.8,2.2-3.8c0.9-1,1.9-1.8,3.1-2.3c1.2-0.5,2.4-0.8,3.6-0.8
		c2.9,0,5.1,1,6.7,3c1.6,2,2.4,5,2.4,8.9c0,0.3,0,0.6,0,1c0,0.4,0,0.7-0.1,1h-13.8c0.1,1.9,0.7,3.3,1.8,4.3c1.1,1,2.6,1.5,4.6,1.5
		c1.2,0,2.2-0.1,3.2-0.4c1-0.2,1.7-0.5,2.3-0.8l0.6,4.4c-0.3,0.1-0.6,0.3-1.1,0.5c-0.5,0.2-1,0.3-1.6,0.4c-0.6,0.1-1.2,0.2-1.9,0.3
		c-0.7,0.1-1.4,0.1-2.1,0.1c-1.8,0-3.4-0.3-4.8-0.9c-1.4-0.6-2.5-1.5-3.4-2.5c-0.9-1.1-1.5-2.4-2-3.8
		C111.7,266,111.4,264.4,111.4,262.7z M125.5,260.3c0-0.7-0.1-1.4-0.3-2.1c-0.2-0.7-0.5-1.2-0.8-1.7c-0.4-0.5-0.8-0.9-1.3-1.2
		c-0.5-0.3-1.1-0.4-1.9-0.4c-0.7,0-1.4,0.2-2,0.5c-0.6,0.3-1,0.7-1.4,1.2c-0.4,0.5-0.7,1.1-0.9,1.7c-0.2,0.7-0.4,1.3-0.4,2H125.5z"
		/>
	<path class="st0" d="M153,273.5c-1,0.3-2.2,0.6-3.6,0.9c-1.5,0.3-3,0.4-4.6,0.4c-1.7,0-3.1-0.3-4.4-0.8c-1.3-0.6-2.4-1.4-3.3-2.4
		c-0.9-1.1-1.6-2.3-2.1-3.8c-0.5-1.5-0.7-3.2-0.7-5c0-1.8,0.2-3.5,0.6-5c0.4-1.5,1-2.8,1.8-3.8c0.8-1.1,1.8-1.9,2.9-2.5
		c1.1-0.6,2.5-0.9,4-0.9c1,0,1.9,0.1,2.7,0.4c0.8,0.3,1.4,0.6,2,0.9v-11.2l4.8-0.9V273.5z M139.2,262.5c0,2.4,0.5,4.2,1.5,5.6
		c1,1.3,2.4,2,4.2,2c0.8,0,1.4,0,2-0.1c0.5-0.1,1-0.2,1.3-0.2v-13.3c-0.4-0.3-1-0.6-1.7-0.9c-0.7-0.3-1.5-0.4-2.3-0.4
		c-1.8,0-3,0.7-3.9,2C139.6,258.4,139.2,260.2,139.2,262.5z"/>
	<path class="st0" d="M171.1,255.8c-0.4-0.1-1-0.3-1.7-0.5c-0.7-0.2-1.5-0.2-2.5-0.2c-0.5,0-1.1,0.1-1.7,0.2c-0.6,0.1-1,0.2-1.3,0.3
		v18.6h-4.8v-22.1c0.9-0.4,2.1-0.7,3.5-1.1c1.4-0.3,2.9-0.5,4.7-0.5c0.3,0,0.7,0,1.1,0.1c0.4,0,0.9,0.1,1.3,0.2
		c0.4,0.1,0.8,0.2,1.2,0.3c0.4,0.1,0.7,0.2,1,0.3L171.1,255.8z"/>
	<path class="st0" d="M182.2,250.4c1.6,0,2.9,0.2,4,0.7c1.1,0.4,2,1.1,2.6,1.9c0.7,0.8,1.1,1.8,1.4,2.9c0.3,1.1,0.4,2.4,0.4,3.8
		v14.1c-0.7,0.2-1.9,0.4-3.4,0.6c-1.5,0.3-3.2,0.4-5.1,0.4c-1.3,0-2.4-0.1-3.4-0.4c-1-0.3-1.9-0.7-2.7-1.3c-0.7-0.6-1.3-1.4-1.7-2.3
		c-0.4-0.9-0.6-2.1-0.6-3.5c0-1.3,0.2-2.5,0.7-3.4c0.5-0.9,1.1-1.7,1.9-2.2c0.8-0.6,1.7-1,2.8-1.2c1.1-0.3,2.1-0.4,3.3-0.4
		c0.5,0,1.1,0,1.7,0.1c0.6,0.1,1.2,0.2,1.9,0.4v-0.9c0-0.6-0.1-1.2-0.2-1.8c-0.1-0.6-0.4-1.1-0.7-1.5c-0.3-0.4-0.8-0.8-1.3-1
		c-0.5-0.2-1.2-0.4-2.1-0.4c-1.1,0-2.1,0.1-3.1,0.3c-0.9,0.2-1.7,0.4-2.3,0.6l-0.6-4.4c0.6-0.2,1.5-0.5,2.7-0.7
		C179.6,250.5,180.9,250.4,182.2,250.4z M182.6,270.4c1.5,0,2.6-0.1,3.4-0.3v-6c-0.3-0.1-0.7-0.2-1.2-0.3c-0.5-0.1-1.1-0.1-1.7-0.1
		c-0.5,0-1.1,0-1.6,0.1c-0.5,0.1-1,0.3-1.5,0.5c-0.4,0.2-0.8,0.6-1.1,1c-0.3,0.4-0.4,1-0.4,1.6c0,1.3,0.4,2.2,1.1,2.6
		C180.4,270.2,181.4,270.4,182.6,270.4z"/>
	<path class="st0" d="M213.8,271.9c0,3.7-0.8,6.4-2.5,8.1c-1.7,1.7-4.3,2.6-7.8,2.6c-1.3,0-2.5-0.1-3.7-0.4
		c-1.2-0.2-2.3-0.5-3.3-0.9l0.9-4.6c0.8,0.4,1.8,0.7,2.8,0.9c1.1,0.2,2.2,0.4,3.4,0.4c1.9,0,3.3-0.4,4.2-1.3c0.8-0.9,1.2-2.2,1.2-4
		v-0.9c-0.5,0.3-1.1,0.5-1.9,0.8c-0.8,0.3-1.7,0.4-2.7,0.4c-1.3,0-2.5-0.2-3.7-0.7c-1.1-0.5-2-1.2-2.8-2.1c-0.8-0.9-1.4-2.1-1.8-3.4
		c-0.4-1.4-0.7-3-0.7-4.8c0-1.7,0.2-3.2,0.7-4.7c0.5-1.4,1.1-2.6,2-3.6c0.9-1,2-1.8,3.3-2.4c1.3-0.6,2.7-0.8,4.4-0.8
		c1.6,0,3.1,0.1,4.5,0.4c1.4,0.3,2.6,0.5,3.6,0.8V271.9z M200.4,262c0,2.3,0.4,3.9,1.3,5c0.9,1.1,2,1.6,3.5,1.6
		c0.8,0,1.5-0.1,2.2-0.4c0.7-0.2,1.2-0.5,1.7-0.8v-12c-0.3-0.1-0.8-0.2-1.3-0.2c-0.5-0.1-1.1-0.1-1.9-0.1c-1.8,0-3.1,0.6-4,1.9
		C200.8,258.2,200.4,259.9,200.4,262z"/>
	<path class="st0" d="M225.2,270.3c1.3,0,2.2-0.2,2.8-0.5c0.6-0.3,0.9-0.9,0.9-1.8c0-0.8-0.3-1.4-0.9-1.9c-0.6-0.5-1.7-1.1-3.1-1.6
		c-0.9-0.4-1.7-0.7-2.4-1.1c-0.7-0.4-1.4-0.9-1.9-1.4c-0.5-0.5-1-1.2-1.3-1.9c-0.3-0.8-0.5-1.7-0.5-2.8c0-2.1,0.7-3.8,2.1-5
		c1.4-1.2,3.3-1.8,5.7-1.8c1.2,0,2.4,0.1,3.5,0.4c1.1,0.3,2,0.5,2.5,0.7l-0.9,4.4c-0.5-0.3-1.2-0.5-2-0.7c-0.8-0.2-1.8-0.3-2.9-0.3
		c-1,0-1.8,0.2-2.4,0.6c-0.6,0.4-0.9,0.9-0.9,1.7c0,0.4,0.1,0.7,0.2,1c0.1,0.3,0.3,0.6,0.6,0.8c0.3,0.3,0.7,0.5,1.2,0.8
		c0.5,0.3,1.1,0.5,1.8,0.8c1.1,0.5,2.1,0.9,2.9,1.4c0.8,0.5,1.5,1,2,1.6c0.5,0.6,0.9,1.2,1.1,2c0.2,0.7,0.4,1.6,0.4,2.7
		c0,2.2-0.7,3.9-2.2,5c-1.5,1.1-3.6,1.7-6.3,1.7c-1.8,0-3.3-0.2-4.4-0.5c-1.1-0.3-1.9-0.6-2.4-0.8l0.8-4.5c0.7,0.3,1.6,0.6,2.6,0.9
		C222.8,270.2,223.9,270.3,225.2,270.3z"/>
	<path class="st0" d="M238,244.8l4.8-0.9v7h7.4v4.5h-7.4v9.5c0,1.9,0.3,3.2,0.8,4c0.5,0.8,1.4,1.2,2.7,1.2c0.9,0,1.7-0.1,2.3-0.3
		c0.7-0.2,1.2-0.4,1.6-0.6l0.8,4.3c-0.6,0.3-1.3,0.5-2.2,0.8c-0.9,0.3-2,0.4-3.2,0.4c-1.5,0-2.7-0.2-3.7-0.7c-1-0.4-1.8-1.1-2.4-1.9
		c-0.6-0.8-1-1.9-1.2-3.1c-0.2-1.2-0.4-2.6-0.4-4.1V244.8z"/>
	<path class="st0" d="M254.9,274.2v-33.6l4.8-0.9v11.5c0.5-0.2,1.2-0.4,1.9-0.5c0.7-0.1,1.4-0.2,2.1-0.2c1.7,0,3.1,0.3,4.2,0.8
		c1.1,0.5,2,1.2,2.7,2.2c0.7,0.9,1.1,2.1,1.4,3.4c0.3,1.3,0.4,2.8,0.4,4.4v13.1h-4.8V262c0-1.2-0.1-2.3-0.2-3.2
		c-0.1-0.9-0.4-1.6-0.7-2.1c-0.3-0.5-0.8-0.9-1.3-1.2c-0.6-0.3-1.3-0.4-2.1-0.4c-0.6,0-1.3,0.1-2,0.2c-0.7,0.1-1.2,0.3-1.5,0.4v18.5
		H254.9z"/>
	<path class="st0" d="M277,262.7c0-2,0.3-3.8,0.8-5.4c0.5-1.5,1.3-2.8,2.2-3.8c0.9-1,1.9-1.8,3.1-2.3c1.2-0.5,2.4-0.8,3.6-0.8
		c2.9,0,5.1,1,6.7,3c1.6,2,2.4,5,2.4,8.9c0,0.3,0,0.6,0,1c0,0.4,0,0.7-0.1,1H282c0.1,1.9,0.7,3.3,1.8,4.3c1.1,1,2.6,1.5,4.6,1.5
		c1.2,0,2.2-0.1,3.2-0.4c1-0.2,1.7-0.5,2.3-0.8l0.6,4.4c-0.3,0.1-0.6,0.3-1.1,0.5c-0.5,0.2-1,0.3-1.6,0.4c-0.6,0.1-1.2,0.2-1.9,0.3
		c-0.7,0.1-1.4,0.1-2.1,0.1c-1.8,0-3.4-0.3-4.8-0.9c-1.4-0.6-2.5-1.5-3.4-2.5c-0.9-1.1-1.5-2.4-2-3.8C277.2,266,277,264.4,277,262.7
		z M291,260.3c0-0.7-0.1-1.4-0.3-2.1c-0.2-0.7-0.5-1.2-0.8-1.7c-0.4-0.5-0.8-0.9-1.3-1.2c-0.5-0.3-1.1-0.4-1.9-0.4
		c-0.7,0-1.4,0.2-2,0.5c-0.6,0.3-1,0.7-1.4,1.2c-0.4,0.5-0.7,1.1-0.9,1.7c-0.2,0.7-0.4,1.3-0.4,2H291z"/>
	<path class="st0" d="M312.8,255.8c-0.4-0.1-1-0.3-1.7-0.5c-0.7-0.2-1.5-0.2-2.5-0.2c-0.5,0-1.1,0.1-1.7,0.2c-0.6,0.1-1,0.2-1.3,0.3
		v18.6h-4.8v-22.1c0.9-0.4,2.1-0.7,3.5-1.1c1.4-0.3,2.9-0.5,4.7-0.5c0.3,0,0.7,0,1.1,0.1c0.4,0,0.9,0.1,1.3,0.2
		c0.4,0.1,0.8,0.2,1.2,0.3c0.4,0.1,0.7,0.2,1,0.3L312.8,255.8z"/>
	<path class="st0" d="M324,250.4c1.6,0,2.9,0.2,4,0.7c1.1,0.4,2,1.1,2.6,1.9c0.7,0.8,1.1,1.8,1.4,2.9c0.3,1.1,0.4,2.4,0.4,3.8v14.1
		c-0.7,0.2-1.9,0.4-3.4,0.6c-1.5,0.3-3.2,0.4-5.1,0.4c-1.3,0-2.4-0.1-3.4-0.4c-1-0.3-1.9-0.7-2.7-1.3c-0.7-0.6-1.3-1.4-1.7-2.3
		c-0.4-0.9-0.6-2.1-0.6-3.5c0-1.3,0.2-2.5,0.7-3.4c0.5-0.9,1.1-1.7,1.9-2.2c0.8-0.6,1.7-1,2.8-1.2c1.1-0.3,2.1-0.4,3.3-0.4
		c0.5,0,1.1,0,1.7,0.1c0.6,0.1,1.2,0.2,1.9,0.4v-0.9c0-0.6-0.1-1.2-0.2-1.8c-0.1-0.6-0.4-1.1-0.7-1.5c-0.3-0.4-0.8-0.8-1.3-1
		c-0.5-0.2-1.2-0.4-2.1-0.4c-1.1,0-2.1,0.1-3.1,0.3c-0.9,0.2-1.7,0.4-2.3,0.6l-0.6-4.4c0.6-0.2,1.5-0.5,2.7-0.7
		C321.4,250.5,322.6,250.4,324,250.4z M324.4,270.4c1.5,0,2.6-0.1,3.4-0.3v-6c-0.3-0.1-0.7-0.2-1.2-0.3c-0.5-0.1-1.1-0.1-1.7-0.1
		c-0.5,0-1.1,0-1.6,0.1c-0.5,0.1-1,0.3-1.5,0.5c-0.4,0.2-0.8,0.6-1.1,1c-0.3,0.4-0.4,1-0.4,1.6c0,1.3,0.4,2.2,1.1,2.6
		C322.2,270.2,323.1,270.4,324.4,270.4z"/>
	<path class="st0" d="M357.1,262.6c0,1.8-0.2,3.4-0.6,4.9c-0.4,1.5-1,2.8-1.8,3.8c-0.8,1.1-1.7,1.9-2.9,2.5
		c-1.2,0.6-2.5,0.9-3.9,0.9c-1,0-1.9-0.1-2.7-0.4c-0.8-0.3-1.5-0.6-2-0.9v9h-4.8v-30.7c1-0.3,2.2-0.6,3.6-0.8c1.4-0.3,3-0.4,4.6-0.4
		c1.6,0,3.1,0.3,4.4,0.8c1.3,0.6,2.4,1.4,3.3,2.4c0.9,1.1,1.6,2.3,2.1,3.8C356.9,259.1,357.1,260.7,357.1,262.6z M352.2,262.7
		c0-2.4-0.5-4.3-1.5-5.6c-1-1.3-2.5-2-4.7-2c-0.5,0-0.9,0-1.4,0.1c-0.5,0-1,0.1-1.5,0.3v13.3c0.4,0.3,1,0.6,1.7,0.9
		c0.7,0.3,1.5,0.4,2.3,0.4c1.8,0,3-0.7,3.9-2C351.8,266.7,352.2,264.9,352.2,262.7z"/>
	<path class="st0" d="M361,262.7c0-2,0.3-3.8,0.8-5.4c0.5-1.5,1.3-2.8,2.2-3.8c0.9-1,1.9-1.8,3.1-2.3c1.2-0.5,2.4-0.8,3.6-0.8
		c2.9,0,5.1,1,6.7,3c1.6,2,2.4,5,2.4,8.9c0,0.3,0,0.6,0,1c0,0.4,0,0.7-0.1,1H366c0.1,1.9,0.7,3.3,1.8,4.3c1.1,1,2.6,1.5,4.6,1.5
		c1.2,0,2.2-0.1,3.2-0.4c1-0.2,1.7-0.5,2.3-0.8l0.6,4.4c-0.3,0.1-0.6,0.3-1.1,0.5c-0.5,0.2-1,0.3-1.6,0.4c-0.6,0.1-1.2,0.2-1.9,0.3
		c-0.7,0.1-1.4,0.1-2.1,0.1c-1.8,0-3.4-0.3-4.8-0.9c-1.4-0.6-2.5-1.5-3.4-2.5c-0.9-1.1-1.5-2.4-2-3.8C361.2,266,361,264.4,361,262.7
		z M375,260.3c0-0.7-0.1-1.4-0.3-2.1c-0.2-0.7-0.5-1.2-0.8-1.7c-0.4-0.5-0.8-0.9-1.3-1.2c-0.5-0.3-1.1-0.4-1.9-0.4
		c-0.7,0-1.4,0.2-2,0.5c-0.6,0.3-1,0.7-1.4,1.2c-0.4,0.5-0.7,1.1-0.9,1.7c-0.2,0.7-0.4,1.3-0.4,2H375z"/>
	<path class="st0" d="M402.1,273.5c-0.9,0.3-2.1,0.5-3.6,0.8c-1.5,0.3-3.1,0.4-4.9,0.4c-1.7,0-3.1-0.3-4.2-0.8
		c-1.1-0.5-2-1.3-2.7-2.2c-0.7-0.9-1.2-2.1-1.5-3.4c-0.3-1.3-0.4-2.8-0.4-4.3v-13h4.8v12.2c0,2.5,0.3,4.3,1,5.3
		c0.7,1.1,1.8,1.6,3.4,1.6c0.6,0,1.2,0,1.9-0.1c0.7-0.1,1.1-0.1,1.5-0.2V251h4.8V273.5z"/>
	<path class="st0" d="M408,244.8l4.8-0.9v7h7.4v4.5h-7.4v9.5c0,1.9,0.3,3.2,0.8,4c0.5,0.8,1.4,1.2,2.7,1.2c0.9,0,1.7-0.1,2.3-0.3
		c0.7-0.2,1.2-0.4,1.6-0.6l0.8,4.3c-0.6,0.3-1.3,0.5-2.2,0.8c-0.9,0.3-2,0.4-3.2,0.4c-1.5,0-2.7-0.2-3.7-0.7c-1-0.4-1.8-1.1-2.4-1.9
		c-0.6-0.8-1-1.9-1.2-3.1c-0.2-1.2-0.4-2.6-0.4-4.1V244.8z"/>
	<path class="st0" d="M423.4,262.7c0-2,0.3-3.8,0.8-5.4c0.5-1.5,1.3-2.8,2.2-3.8c0.9-1,1.9-1.8,3.1-2.3c1.2-0.5,2.4-0.8,3.6-0.8
		c2.9,0,5.1,1,6.7,3c1.6,2,2.4,5,2.4,8.9c0,0.3,0,0.6,0,1c0,0.4,0,0.7-0.1,1h-13.8c0.1,1.9,0.7,3.3,1.8,4.3c1.1,1,2.6,1.5,4.6,1.5
		c1.2,0,2.2-0.1,3.2-0.4c1-0.2,1.7-0.5,2.3-0.8l0.6,4.4c-0.3,0.1-0.6,0.3-1.1,0.5c-0.5,0.2-1,0.3-1.6,0.4c-0.6,0.1-1.2,0.2-1.9,0.3
		c-0.7,0.1-1.4,0.1-2.1,0.1c-1.8,0-3.4-0.3-4.8-0.9c-1.4-0.6-2.5-1.5-3.4-2.5c-0.9-1.1-1.5-2.4-2-3.8
		C423.6,266,423.4,264.4,423.4,262.7z M437.4,260.3c0-0.7-0.1-1.4-0.3-2.1c-0.2-0.7-0.5-1.2-0.8-1.7c-0.4-0.5-0.8-0.9-1.3-1.2
		c-0.5-0.3-1.1-0.4-1.9-0.4c-0.7,0-1.4,0.2-2,0.5c-0.6,0.3-1,0.7-1.4,1.2c-0.4,0.5-0.7,1.1-0.9,1.7c-0.2,0.7-0.4,1.3-0.4,2H437.4z"
		/>
	<path class="st0" d="M447.3,251.7c0.9-0.3,2.1-0.6,3.6-0.8c1.5-0.3,3.1-0.4,4.9-0.4c1.7,0,3.1,0.3,4.3,0.8c1.1,0.5,2.1,1.2,2.7,2.2
		c0.7,0.9,1.2,2.1,1.4,3.4c0.3,1.3,0.4,2.8,0.4,4.3v13.1h-4.8V262c0-1.2-0.1-2.3-0.2-3.2c-0.1-0.9-0.4-1.6-0.7-2.1
		c-0.3-0.5-0.8-0.9-1.4-1.2c-0.6-0.3-1.3-0.4-2.1-0.4c-0.6,0-1.3,0-1.9,0.1c-0.7,0.1-1.2,0.2-1.5,0.2v18.8h-4.8V251.7z"/>
	<path class="st0" d="M485.4,274.2c-1.3-3.1-2.7-6.6-4.1-10.5c-1.4-4-2.7-8.2-3.8-12.7h5.2c0.3,1.3,0.6,2.7,1,4.2
		c0.4,1.5,0.8,3,1.2,4.5c0.4,1.5,0.9,2.9,1.4,4.4c0.5,1.4,0.9,2.7,1.3,3.8c0.4-1.1,0.8-2.4,1.3-3.8c0.5-1.4,0.9-2.9,1.3-4.4
		c0.4-1.5,0.9-3,1.3-4.5c0.4-1.5,0.7-2.9,1-4.2h5c-1.1,4.5-2.4,8.8-3.8,12.7c-1.4,4-2.8,7.5-4.1,10.5H485.4z"/>
	<path class="st0" d="M519.4,262.6c0,1.8-0.2,3.5-0.7,5c-0.5,1.5-1.2,2.8-2,3.9c-0.9,1.1-1.9,1.9-3.2,2.5c-1.2,0.6-2.6,0.9-4.1,0.9
		c-1.5,0-2.8-0.3-4.1-0.9c-1.2-0.6-2.3-1.4-3.2-2.5c-0.9-1.1-1.6-2.4-2.1-3.9c-0.5-1.5-0.7-3.2-0.7-5c0-1.8,0.2-3.5,0.7-5
		c0.5-1.5,1.2-2.8,2.1-3.8c0.9-1.1,1.9-1.9,3.2-2.5c1.2-0.6,2.6-0.9,4-0.9c1.5,0,2.8,0.3,4.1,0.9c1.2,0.6,2.3,1.4,3.2,2.5
		c0.9,1.1,1.6,2.3,2.1,3.8C519.1,259.1,519.4,260.7,519.4,262.6z M514.4,262.6c0-2.3-0.4-4.1-1.3-5.5c-0.9-1.3-2.1-2-3.7-2
		s-2.8,0.7-3.7,2c-0.9,1.3-1.3,3.2-1.3,5.5c0,2.3,0.4,4.2,1.3,5.6c0.9,1.4,2.1,2,3.7,2s2.8-0.7,3.7-2
		C514,266.8,514.4,264.9,514.4,262.6z"/>
	<path class="st0" d="M543.2,262.6c0,1.8-0.2,3.5-0.7,5c-0.5,1.5-1.2,2.8-2,3.9c-0.9,1.1-1.9,1.9-3.2,2.5c-1.2,0.6-2.6,0.9-4.1,0.9
		c-1.5,0-2.8-0.3-4.1-0.9c-1.2-0.6-2.3-1.4-3.2-2.5c-0.9-1.1-1.6-2.4-2.1-3.9c-0.5-1.5-0.7-3.2-0.7-5c0-1.8,0.2-3.5,0.7-5
		c0.5-1.5,1.2-2.8,2.1-3.8c0.9-1.1,1.9-1.9,3.2-2.5c1.2-0.6,2.6-0.9,4-0.9c1.5,0,2.8,0.3,4.1,0.9c1.2,0.6,2.3,1.4,3.2,2.5
		c0.9,1.1,1.6,2.3,2.1,3.8C543,259.1,543.2,260.7,543.2,262.6z M538.3,262.6c0-2.3-0.4-4.1-1.3-5.5c-0.9-1.3-2.1-2-3.7-2
		s-2.8,0.7-3.7,2c-0.9,1.3-1.3,3.2-1.3,5.5c0,2.3,0.4,4.2,1.3,5.6c0.9,1.4,2.1,2,3.7,2s2.8-0.7,3.7-2
		C537.8,266.8,538.3,264.9,538.3,262.6z"/>
	<path class="st0" d="M560.1,255.8c-0.4-0.1-1-0.3-1.7-0.5c-0.7-0.2-1.5-0.2-2.5-0.2c-0.5,0-1.1,0.1-1.7,0.2c-0.6,0.1-1,0.2-1.3,0.3
		v18.6h-4.8v-22.1c0.9-0.4,2.1-0.7,3.5-1.1c1.4-0.3,2.9-0.5,4.7-0.5c0.3,0,0.7,0,1.1,0.1c0.4,0,0.9,0.1,1.3,0.2
		c0.4,0.1,0.8,0.2,1.2,0.3c0.4,0.1,0.7,0.2,1,0.3L560.1,255.8z"/>
	<path class="st0" d="M590.9,243.4h5v30.8h-5v-13.6h-12v13.6h-5v-30.8h5v12.3h12V243.4z"/>
	<path class="st0" d="M621.2,262.6c0,1.8-0.2,3.5-0.7,5c-0.5,1.5-1.2,2.8-2,3.9c-0.9,1.1-1.9,1.9-3.2,2.5c-1.2,0.6-2.6,0.9-4.1,0.9
		c-1.5,0-2.8-0.3-4.1-0.9c-1.2-0.6-2.3-1.4-3.2-2.5c-0.9-1.1-1.6-2.4-2.1-3.9c-0.5-1.5-0.7-3.2-0.7-5c0-1.8,0.2-3.5,0.7-5
		c0.5-1.5,1.2-2.8,2.1-3.8c0.9-1.1,1.9-1.9,3.2-2.5c1.2-0.6,2.6-0.9,4-0.9c1.5,0,2.8,0.3,4.1,0.9c1.2,0.6,2.3,1.4,3.2,2.5
		c0.9,1.1,1.6,2.3,2.1,3.8C621,259.1,621.2,260.7,621.2,262.6z M616.3,262.6c0-2.3-0.4-4.1-1.3-5.5c-0.9-1.3-2.1-2-3.7-2
		s-2.8,0.7-3.7,2c-0.9,1.3-1.3,3.2-1.3,5.5c0,2.3,0.4,4.2,1.3,5.6c0.9,1.4,2.1,2,3.7,2s2.8-0.7,3.7-2
		C615.8,266.8,616.3,264.9,616.3,262.6z"/>
	<path class="st0" d="M626.2,251.7c0.9-0.3,2.1-0.6,3.6-0.8c1.5-0.3,3.1-0.4,4.9-0.4c1.7,0,3.1,0.3,4.3,0.8c1.1,0.5,2.1,1.2,2.7,2.2
		c0.7,0.9,1.2,2.1,1.4,3.4c0.3,1.3,0.4,2.8,0.4,4.3v13.1h-4.8V262c0-1.2-0.1-2.3-0.2-3.2c-0.1-0.9-0.4-1.6-0.7-2.1
		c-0.3-0.5-0.8-0.9-1.4-1.2c-0.6-0.3-1.3-0.4-2.1-0.4c-0.6,0-1.3,0-1.9,0.1c-0.7,0.1-1.2,0.2-1.5,0.2v18.8h-4.8V251.7z"/>
	<path class="st0" d="M667.2,273.5c-1,0.3-2.2,0.6-3.6,0.9c-1.5,0.3-3,0.4-4.6,0.4c-1.7,0-3.1-0.3-4.4-0.8c-1.3-0.6-2.4-1.4-3.3-2.4
		c-0.9-1.1-1.6-2.3-2.1-3.8c-0.5-1.5-0.7-3.2-0.7-5c0-1.8,0.2-3.5,0.6-5c0.4-1.5,1-2.8,1.8-3.8c0.8-1.1,1.8-1.9,2.9-2.5
		c1.1-0.6,2.5-0.9,4-0.9c1,0,1.9,0.1,2.7,0.4c0.8,0.3,1.4,0.6,2,0.9v-11.2l4.8-0.9V273.5z M653.3,262.5c0,2.4,0.5,4.2,1.5,5.6
		c1,1.3,2.4,2,4.2,2c0.8,0,1.4,0,2-0.1c0.5-0.1,1-0.2,1.3-0.2v-13.3c-0.4-0.3-1-0.6-1.7-0.9c-0.7-0.3-1.5-0.4-2.3-0.4
		c-1.8,0-3,0.7-3.9,2C653.7,258.4,653.3,260.2,653.3,262.5z"/>
	<path class="st0" d="M672.2,262.7c0-2,0.3-3.8,0.8-5.4c0.5-1.5,1.3-2.8,2.2-3.8c0.9-1,1.9-1.8,3.1-2.3c1.2-0.5,2.4-0.8,3.6-0.8
		c2.9,0,5.1,1,6.7,3c1.6,2,2.4,5,2.4,8.9c0,0.3,0,0.6,0,1c0,0.4,0,0.7-0.1,1h-13.8c0.1,1.9,0.7,3.3,1.8,4.3c1.1,1,2.6,1.5,4.6,1.5
		c1.2,0,2.2-0.1,3.2-0.4c1-0.2,1.7-0.5,2.3-0.8l0.6,4.4c-0.3,0.1-0.6,0.3-1.1,0.5c-0.5,0.2-1,0.3-1.6,0.4c-0.6,0.1-1.2,0.2-1.9,0.3
		c-0.7,0.1-1.4,0.1-2.1,0.1c-1.8,0-3.4-0.3-4.8-0.9c-1.4-0.6-2.5-1.5-3.4-2.5c-0.9-1.1-1.5-2.4-2-3.8
		C672.4,266,672.2,264.4,672.2,262.7z M686.2,260.3c0-0.7-0.1-1.4-0.3-2.1c-0.2-0.7-0.5-1.2-0.8-1.7c-0.4-0.5-0.8-0.9-1.3-1.2
		c-0.5-0.3-1.1-0.4-1.9-0.4c-0.7,0-1.4,0.2-2,0.5c-0.6,0.3-1,0.7-1.4,1.2c-0.4,0.5-0.7,1.1-0.9,1.7c-0.2,0.7-0.4,1.3-0.4,2H686.2z"
		/>
	<path class="st0" d="M696.1,251.7c0.9-0.3,2.1-0.6,3.6-0.8c1.5-0.3,3.1-0.4,4.9-0.4c1.7,0,3.1,0.3,4.3,0.8c1.1,0.5,2.1,1.2,2.7,2.2
		c0.7,0.9,1.2,2.1,1.4,3.4c0.3,1.3,0.4,2.8,0.4,4.3v13.1h-4.8V262c0-1.2-0.1-2.3-0.2-3.2c-0.1-0.9-0.4-1.6-0.7-2.1
		c-0.3-0.5-0.8-0.9-1.4-1.2c-0.6-0.3-1.3-0.4-2.1-0.4c-0.6,0-1.3,0-1.9,0.1c-0.7,0.1-1.2,0.2-1.5,0.2v18.8h-4.8V251.7z"/>
</g>
<g>
	<path class="st1" d="M408.7,222.8c-0.6-0.9-1.2-1.9-1.9-3c-0.7-1.1-1.4-2.1-2.1-3.2c-0.7-1.1-1.5-2.1-2.2-3.2
		c-0.8-1-1.5-1.9-2.2-2.8v12.1h-3v-16.9h2.5c0.7,0.7,1.4,1.5,2.1,2.4c0.7,0.9,1.5,1.9,2.3,2.9c0.8,1,1.5,2,2.2,3
		c0.7,1,1.3,2,1.9,2.8v-11.2h3.1v16.9H408.7z"/>
	<path class="st1" d="M414.5,216.5c0-1.1,0.2-2.1,0.5-3c0.3-0.8,0.8-1.6,1.3-2.1c0.6-0.6,1.2-1,1.9-1.3c0.7-0.3,1.5-0.4,2.2-0.4
		c1.8,0,3.1,0.5,4.1,1.6c1,1.1,1.5,2.7,1.5,4.9c0,0.2,0,0.3,0,0.6c0,0.2,0,0.4,0,0.6h-8.4c0.1,1,0.4,1.8,1.1,2.4
		c0.6,0.6,1.6,0.8,2.8,0.8c0.7,0,1.4-0.1,2-0.2c0.6-0.1,1.1-0.3,1.4-0.4l0.4,2.4c-0.2,0.1-0.4,0.2-0.7,0.3c-0.3,0.1-0.6,0.2-1,0.2
		c-0.4,0.1-0.8,0.1-1.2,0.2c-0.4,0-0.9,0.1-1.3,0.1c-1.1,0-2.1-0.2-2.9-0.5c-0.8-0.3-1.5-0.8-2.1-1.4c-0.5-0.6-0.9-1.3-1.2-2.1
		C414.6,218.3,414.5,217.4,414.5,216.5z M423.1,215.2c0-0.4-0.1-0.8-0.2-1.2c-0.1-0.4-0.3-0.7-0.5-1c-0.2-0.3-0.5-0.5-0.8-0.6
		s-0.7-0.2-1.1-0.2c-0.5,0-0.9,0.1-1.2,0.3s-0.6,0.4-0.9,0.7c-0.2,0.3-0.4,0.6-0.6,1c-0.1,0.4-0.2,0.7-0.3,1.1H423.1z"/>
	<path class="st1" d="M440,222.4c-0.6,0.2-1.3,0.3-2.2,0.5c-0.9,0.1-1.8,0.2-2.8,0.2c-1,0-1.9-0.2-2.7-0.5c-0.8-0.3-1.5-0.8-2-1.3
		c-0.6-0.6-1-1.3-1.3-2.1c-0.3-0.8-0.5-1.7-0.5-2.8c0-1,0.1-1.9,0.4-2.8c0.3-0.8,0.6-1.5,1.1-2.1c0.5-0.6,1.1-1,1.8-1.4
		c0.7-0.3,1.5-0.5,2.4-0.5c0.6,0,1.2,0.1,1.6,0.2c0.5,0.1,0.9,0.3,1.2,0.5v-6.1l3-0.5V222.4z M431.5,216.4c0,1.3,0.3,2.3,0.9,3.1
		c0.6,0.7,1.5,1.1,2.6,1.1c0.5,0,0.9,0,1.2-0.1c0.3,0,0.6-0.1,0.8-0.1V213c-0.3-0.2-0.6-0.3-1-0.5c-0.4-0.2-0.9-0.2-1.4-0.2
		c-1.1,0-1.9,0.4-2.4,1.1C431.8,214.1,431.5,215.1,431.5,216.4z"/>
	<path class="st1" d="M443.1,216.5c0-1.1,0.2-2.1,0.5-3c0.3-0.8,0.8-1.6,1.3-2.1c0.6-0.6,1.2-1,1.9-1.3c0.7-0.3,1.5-0.4,2.2-0.4
		c1.8,0,3.1,0.5,4.1,1.6c1,1.1,1.5,2.7,1.5,4.9c0,0.2,0,0.3,0,0.6c0,0.2,0,0.4,0,0.6h-8.4c0.1,1,0.4,1.8,1.1,2.4
		c0.6,0.6,1.6,0.8,2.8,0.8c0.7,0,1.4-0.1,2-0.2c0.6-0.1,1.1-0.3,1.4-0.4l0.4,2.4c-0.2,0.1-0.4,0.2-0.7,0.3c-0.3,0.1-0.6,0.2-1,0.2
		c-0.4,0.1-0.8,0.1-1.2,0.2c-0.4,0-0.9,0.1-1.3,0.1c-1.1,0-2.1-0.2-2.9-0.5c-0.8-0.3-1.5-0.8-2.1-1.4c-0.5-0.6-0.9-1.3-1.2-2.1
		C443.2,218.3,443.1,217.4,443.1,216.5z M451.6,215.2c0-0.4-0.1-0.8-0.2-1.2c-0.1-0.4-0.3-0.7-0.5-1c-0.2-0.3-0.5-0.5-0.8-0.6
		s-0.7-0.2-1.1-0.2c-0.5,0-0.9,0.1-1.2,0.3s-0.6,0.4-0.9,0.7c-0.2,0.3-0.4,0.6-0.6,1c-0.1,0.4-0.2,0.7-0.3,1.1H451.6z"/>
	<path class="st1" d="M465,212.7c-0.2-0.1-0.6-0.2-1-0.3c-0.4-0.1-0.9-0.1-1.5-0.1c-0.3,0-0.7,0-1,0.1c-0.4,0.1-0.6,0.1-0.8,0.2
		v10.2h-3v-12.2c0.6-0.2,1.3-0.4,2.1-0.6s1.8-0.3,2.8-0.3c0.2,0,0.4,0,0.7,0c0.3,0,0.5,0.1,0.8,0.1c0.3,0,0.5,0.1,0.8,0.1
		c0.2,0.1,0.4,0.1,0.6,0.2L465,212.7z"/>
	<path class="st1" d="M472,223.1c-0.9,0-1.6-0.1-2.2-0.3c-0.6-0.2-1-0.4-1.4-0.8c-0.3-0.3-0.6-0.7-0.7-1.2c-0.1-0.5-0.2-1.1-0.2-1.7
		v-14.7l3-0.5v14.6c0,0.4,0,0.7,0.1,0.9c0.1,0.2,0.2,0.5,0.3,0.6c0.1,0.2,0.3,0.3,0.6,0.4c0.3,0.1,0.6,0.2,1,0.2L472,223.1z"/>
	<path class="st1" d="M479.1,209.7c1,0,1.8,0.1,2.5,0.4c0.7,0.2,1.2,0.6,1.6,1c0.4,0.4,0.7,1,0.9,1.6c0.2,0.6,0.3,1.3,0.3,2.1v7.8
		c-0.5,0.1-1.1,0.2-2.1,0.4c-0.9,0.1-2,0.2-3.1,0.2c-0.8,0-1.5-0.1-2.1-0.2c-0.6-0.1-1.2-0.4-1.6-0.7c-0.4-0.3-0.8-0.7-1.1-1.3
		c-0.3-0.5-0.4-1.2-0.4-1.9c0-0.7,0.1-1.4,0.4-1.9c0.3-0.5,0.7-0.9,1.2-1.2c0.5-0.3,1.1-0.5,1.7-0.7c0.6-0.1,1.3-0.2,2-0.2
		c0.3,0,0.7,0,1,0.1c0.4,0,0.7,0.1,1.1,0.2v-0.5c0-0.3,0-0.7-0.1-1c-0.1-0.3-0.2-0.6-0.4-0.8c-0.2-0.2-0.5-0.4-0.8-0.6
		c-0.3-0.1-0.8-0.2-1.3-0.2c-0.7,0-1.3,0-1.9,0.1c-0.6,0.1-1,0.2-1.4,0.3l-0.4-2.4c0.4-0.1,0.9-0.3,1.6-0.4
		C477.5,209.8,478.3,209.7,479.1,209.7z M479.3,220.7c0.9,0,1.6,0,2.1-0.1v-3.3c-0.2,0-0.4-0.1-0.7-0.1c-0.3,0-0.7-0.1-1-0.1
		c-0.3,0-0.7,0-1,0.1c-0.3,0-0.6,0.1-0.9,0.3c-0.3,0.1-0.5,0.3-0.6,0.6c-0.2,0.2-0.2,0.5-0.2,0.9c0,0.7,0.2,1.2,0.7,1.5
		C478,220.6,478.6,220.7,479.3,220.7z"/>
	<path class="st1" d="M487.9,210.4c0.6-0.2,1.3-0.3,2.2-0.5c0.9-0.1,1.9-0.2,3-0.2c1,0,1.9,0.1,2.6,0.4c0.7,0.3,1.3,0.7,1.7,1.2
		c0.4,0.5,0.7,1.1,0.9,1.9c0.2,0.7,0.3,1.5,0.3,2.4v7.2h-3v-6.7c0-0.7,0-1.3-0.1-1.7c-0.1-0.5-0.2-0.9-0.4-1.2
		c-0.2-0.3-0.5-0.5-0.8-0.7c-0.4-0.1-0.8-0.2-1.3-0.2c-0.4,0-0.8,0-1.2,0.1c-0.4,0-0.7,0.1-0.9,0.1v10.3h-3V210.4z"/>
	<path class="st1" d="M513,222.4c-0.6,0.2-1.3,0.3-2.2,0.5c-0.9,0.1-1.8,0.2-2.8,0.2c-1,0-1.9-0.2-2.7-0.5c-0.8-0.3-1.5-0.8-2-1.3
		c-0.6-0.6-1-1.3-1.3-2.1c-0.3-0.8-0.5-1.7-0.5-2.8c0-1,0.1-1.9,0.4-2.8c0.3-0.8,0.6-1.5,1.1-2.1c0.5-0.6,1.1-1,1.8-1.4
		c0.7-0.3,1.5-0.5,2.4-0.5c0.6,0,1.2,0.1,1.6,0.2c0.5,0.1,0.9,0.3,1.2,0.5v-6.1l3-0.5V222.4z M504.5,216.4c0,1.3,0.3,2.3,0.9,3.1
		c0.6,0.7,1.5,1.1,2.6,1.1c0.5,0,0.9,0,1.2-0.1c0.3,0,0.6-0.1,0.8-0.1V213c-0.3-0.2-0.6-0.3-1-0.5c-0.4-0.2-0.9-0.2-1.4-0.2
		c-1.1,0-1.9,0.4-2.4,1.1C504.8,214.1,504.5,215.1,504.5,216.4z"/>
	<path class="st1" d="M520,220.7c0.8,0,1.4-0.1,1.7-0.3c0.4-0.2,0.5-0.5,0.5-1c0-0.4-0.2-0.8-0.6-1.1c-0.4-0.3-1-0.6-1.9-0.9
		c-0.5-0.2-1-0.4-1.5-0.6c-0.4-0.2-0.8-0.5-1.2-0.8c-0.3-0.3-0.6-0.6-0.8-1.1c-0.2-0.4-0.3-0.9-0.3-1.5c0-1.2,0.4-2.1,1.3-2.8
		c0.9-0.7,2-1,3.5-1c0.8,0,1.5,0.1,2.2,0.2c0.7,0.1,1.2,0.3,1.5,0.4l-0.5,2.4c-0.3-0.1-0.7-0.3-1.2-0.4c-0.5-0.1-1.1-0.2-1.8-0.2
		c-0.6,0-1.1,0.1-1.5,0.3c-0.4,0.2-0.6,0.5-0.6,0.9c0,0.2,0,0.4,0.1,0.6c0.1,0.2,0.2,0.3,0.4,0.5c0.2,0.1,0.4,0.3,0.7,0.4
		c0.3,0.1,0.7,0.3,1.1,0.4c0.7,0.3,1.3,0.5,1.8,0.8c0.5,0.3,0.9,0.5,1.2,0.9c0.3,0.3,0.6,0.7,0.7,1.1c0.1,0.4,0.2,0.9,0.2,1.5
		c0,1.2-0.5,2.1-1.4,2.8s-2.2,0.9-3.9,0.9c-1.1,0-2-0.1-2.7-0.3c-0.7-0.2-1.2-0.3-1.4-0.5l0.5-2.5c0.4,0.2,1,0.4,1.6,0.5
		C518.5,220.6,519.2,220.7,520,220.7z"/>
	<path class="st1" d="M527.3,216.5c0-1.1,0.2-2.1,0.5-3c0.3-0.8,0.8-1.6,1.3-2.1c0.6-0.6,1.2-1,1.9-1.3c0.7-0.3,1.5-0.4,2.2-0.4
		c1.8,0,3.1,0.5,4.1,1.6c1,1.1,1.5,2.7,1.5,4.9c0,0.2,0,0.3,0,0.6c0,0.2,0,0.4,0,0.6h-8.4c0.1,1,0.4,1.8,1.1,2.4
		c0.6,0.6,1.6,0.8,2.8,0.8c0.7,0,1.4-0.1,2-0.2c0.6-0.1,1.1-0.3,1.4-0.4l0.4,2.4c-0.2,0.1-0.4,0.2-0.7,0.3c-0.3,0.1-0.6,0.2-1,0.2
		c-0.4,0.1-0.8,0.1-1.2,0.2c-0.4,0-0.9,0.1-1.3,0.1c-1.1,0-2.1-0.2-2.9-0.5c-0.8-0.3-1.5-0.8-2.1-1.4c-0.5-0.6-0.9-1.3-1.2-2.1
		C527.4,218.3,527.3,217.4,527.3,216.5z M535.8,215.2c0-0.4-0.1-0.8-0.2-1.2c-0.1-0.4-0.3-0.7-0.5-1s-0.5-0.5-0.8-0.6
		c-0.3-0.2-0.7-0.2-1.1-0.2c-0.5,0-0.9,0.1-1.2,0.3c-0.3,0.2-0.6,0.4-0.9,0.7c-0.2,0.3-0.4,0.6-0.6,1c-0.1,0.4-0.2,0.7-0.3,1.1
		H535.8z"/>
	<path class="st1" d="M552.6,222.8c-1.2-2.6-2.4-5.4-3.5-8.3c-1.1-2.9-2.2-5.8-3.2-8.7h3.4c0.4,1.1,0.8,2.3,1.2,3.5
		c0.4,1.2,0.8,2.4,1.2,3.5c0.4,1.1,0.8,2.3,1.2,3.3c0.4,1.1,0.8,2.1,1.2,3c0.4-0.9,0.8-1.9,1.2-2.9c0.4-1.1,0.8-2.2,1.2-3.3
		c0.4-1.2,0.8-2.3,1.2-3.5c0.4-1.2,0.8-2.4,1.2-3.5h3.3c-1,2.9-2.1,5.8-3.2,8.7c-1.1,2.9-2.3,5.6-3.5,8.3H552.6z"/>
	<path class="st1" d="M562.6,216.5c0-1.1,0.2-2.1,0.5-3c0.3-0.8,0.8-1.6,1.3-2.1c0.6-0.6,1.2-1,1.9-1.3c0.7-0.3,1.5-0.4,2.2-0.4
		c1.8,0,3.1,0.5,4.1,1.6c1,1.1,1.5,2.7,1.5,4.9c0,0.2,0,0.3,0,0.6c0,0.2,0,0.4,0,0.6h-8.4c0.1,1,0.4,1.8,1.1,2.4
		c0.6,0.6,1.6,0.8,2.8,0.8c0.7,0,1.4-0.1,2-0.2c0.6-0.1,1.1-0.3,1.4-0.4l0.4,2.4c-0.2,0.1-0.4,0.2-0.7,0.3c-0.3,0.1-0.6,0.2-1,0.2
		c-0.4,0.1-0.8,0.1-1.2,0.2c-0.4,0-0.9,0.1-1.3,0.1c-1.1,0-2.1-0.2-2.9-0.5c-0.8-0.3-1.5-0.8-2.1-1.4c-0.5-0.6-0.9-1.3-1.2-2.1
		C562.8,218.3,562.6,217.4,562.6,216.5z M571.2,215.2c0-0.4-0.1-0.8-0.2-1.2c-0.1-0.4-0.3-0.7-0.5-1s-0.5-0.5-0.8-0.6
		s-0.7-0.2-1.1-0.2c-0.5,0-0.9,0.1-1.2,0.3s-0.6,0.4-0.9,0.7c-0.2,0.3-0.4,0.6-0.6,1c-0.1,0.4-0.2,0.7-0.3,1.1H571.2z"/>
	<path class="st1" d="M584.6,212.7c-0.2-0.1-0.6-0.2-1-0.3c-0.4-0.1-0.9-0.1-1.5-0.1c-0.3,0-0.7,0-1,0.1c-0.4,0.1-0.6,0.1-0.8,0.2
		v10.2h-3v-12.2c0.6-0.2,1.3-0.4,2.1-0.6s1.8-0.3,2.8-0.3c0.2,0,0.4,0,0.7,0c0.3,0,0.5,0.1,0.8,0.1c0.3,0,0.5,0.1,0.8,0.1
		c0.2,0.1,0.4,0.1,0.6,0.2L584.6,212.7z"/>
	<path class="st1" d="M586.5,216.5c0-1.1,0.2-2.1,0.5-3c0.3-0.8,0.8-1.6,1.3-2.1c0.6-0.6,1.2-1,1.9-1.3c0.7-0.3,1.5-0.4,2.2-0.4
		c1.8,0,3.1,0.5,4.1,1.6c1,1.1,1.5,2.7,1.5,4.9c0,0.2,0,0.3,0,0.6c0,0.2,0,0.4,0,0.6h-8.4c0.1,1,0.4,1.8,1.1,2.4
		c0.6,0.6,1.6,0.8,2.8,0.8c0.7,0,1.4-0.1,2-0.2c0.6-0.1,1.1-0.3,1.4-0.4l0.4,2.4c-0.2,0.1-0.4,0.2-0.7,0.3c-0.3,0.1-0.6,0.2-1,0.2
		c-0.4,0.1-0.8,0.1-1.2,0.2c-0.4,0-0.9,0.1-1.3,0.1c-1.1,0-2.1-0.2-2.9-0.5c-0.8-0.3-1.5-0.8-2.1-1.4c-0.5-0.6-0.9-1.3-1.2-2.1
		C586.6,218.3,586.5,217.4,586.5,216.5z M595.1,215.2c0-0.4-0.1-0.8-0.2-1.2c-0.1-0.4-0.3-0.7-0.5-1c-0.2-0.3-0.5-0.5-0.8-0.6
		c-0.3-0.2-0.7-0.2-1.1-0.2c-0.5,0-0.9,0.1-1.2,0.3s-0.6,0.4-0.9,0.7c-0.2,0.3-0.4,0.6-0.6,1c-0.1,0.4-0.2,0.7-0.3,1.1H595.1z"/>
	<path class="st1" d="M601.1,210.4c0.6-0.2,1.3-0.3,2.2-0.5c0.9-0.1,1.9-0.2,3-0.2c1,0,1.9,0.1,2.6,0.4c0.7,0.3,1.3,0.7,1.7,1.2
		c0.4,0.5,0.7,1.1,0.9,1.9c0.2,0.7,0.3,1.5,0.3,2.4v7.2h-3v-6.7c0-0.7,0-1.3-0.1-1.7c-0.1-0.5-0.2-0.9-0.4-1.2
		c-0.2-0.3-0.5-0.5-0.8-0.7c-0.4-0.1-0.8-0.2-1.3-0.2c-0.4,0-0.8,0-1.2,0.1c-0.4,0-0.7,0.1-0.9,0.1v10.3h-3V210.4z"/>
	<path class="st1" d="M618.7,206.3c0,0.6-0.2,1-0.5,1.3c-0.4,0.3-0.8,0.5-1.3,0.5c-0.5,0-0.9-0.2-1.3-0.5c-0.4-0.3-0.5-0.8-0.5-1.3
		c0-0.6,0.2-1,0.5-1.3c0.4-0.3,0.8-0.5,1.3-0.5c0.5,0,0.9,0.2,1.3,0.5C618.6,205.3,618.7,205.7,618.7,206.3z M618.4,222.8h-3V210h3
		V222.8z"/>
	<path class="st1" d="M632.8,221.5c0,2-0.5,3.5-1.6,4.5c-1,0.9-2.6,1.4-4.8,1.4c-0.8,0-1.5-0.1-2.3-0.2c-0.7-0.1-1.4-0.3-2-0.5
		l0.5-2.5c0.5,0.2,1.1,0.4,1.7,0.5c0.6,0.1,1.3,0.2,2.1,0.2c1.2,0,2-0.2,2.5-0.7c0.5-0.5,0.8-1.2,0.8-2.2v-0.5
		c-0.3,0.1-0.7,0.3-1.2,0.4c-0.5,0.1-1,0.2-1.7,0.2c-0.8,0-1.6-0.1-2.2-0.4c-0.7-0.3-1.3-0.6-1.7-1.1c-0.5-0.5-0.9-1.1-1.1-1.9
		c-0.3-0.8-0.4-1.6-0.4-2.6c0-0.9,0.1-1.8,0.4-2.6c0.3-0.8,0.7-1.5,1.2-2c0.5-0.6,1.2-1,2-1.3c0.8-0.3,1.7-0.5,2.7-0.5
		c1,0,1.9,0.1,2.7,0.2c0.9,0.1,1.6,0.3,2.2,0.5V221.5z M624.5,216.1c0,1.3,0.3,2.2,0.8,2.8c0.5,0.6,1.3,0.9,2.1,0.9
		c0.5,0,0.9-0.1,1.3-0.2c0.4-0.1,0.8-0.3,1-0.5v-6.6c-0.2,0-0.5-0.1-0.8-0.1c-0.3,0-0.7-0.1-1.2-0.1c-1.1,0-1.9,0.4-2.5,1.1
		C624.8,214,624.5,214.9,624.5,216.1z"/>
	<path class="st1" d="M639.8,206.3c0,0.6-0.2,1-0.5,1.3c-0.4,0.3-0.8,0.5-1.3,0.5c-0.5,0-0.9-0.2-1.3-0.5c-0.4-0.3-0.5-0.8-0.5-1.3
		c0-0.6,0.2-1,0.5-1.3c0.4-0.3,0.8-0.5,1.3-0.5c0.5,0,0.9,0.2,1.3,0.5C639.7,205.3,639.8,205.7,639.8,206.3z M639.5,222.8h-3V210h3
		V222.8z"/>
	<path class="st1" d="M643.3,210.4c0.6-0.2,1.3-0.3,2.2-0.5c0.9-0.1,1.9-0.2,3-0.2c1,0,1.9,0.1,2.6,0.4c0.7,0.3,1.3,0.7,1.7,1.2
		c0.4,0.5,0.7,1.1,0.9,1.9c0.2,0.7,0.3,1.5,0.3,2.4v7.2h-3v-6.7c0-0.7,0-1.3-0.1-1.7c-0.1-0.5-0.2-0.9-0.4-1.2
		c-0.2-0.3-0.5-0.5-0.8-0.7c-0.4-0.1-0.8-0.2-1.3-0.2c-0.4,0-0.8,0-1.2,0.1c-0.4,0-0.7,0.1-0.9,0.1v10.3h-3V210.4z"/>
	<path class="st1" d="M668.2,221.5c0,2-0.5,3.5-1.6,4.5c-1,0.9-2.6,1.4-4.8,1.4c-0.8,0-1.5-0.1-2.3-0.2c-0.7-0.1-1.4-0.3-2-0.5
		l0.5-2.5c0.5,0.2,1.1,0.4,1.7,0.5c0.6,0.1,1.3,0.2,2.1,0.2c1.2,0,2-0.2,2.5-0.7c0.5-0.5,0.8-1.2,0.8-2.2v-0.5
		c-0.3,0.1-0.7,0.3-1.2,0.4c-0.5,0.1-1,0.2-1.7,0.2c-0.8,0-1.6-0.1-2.2-0.4c-0.7-0.3-1.3-0.6-1.7-1.1c-0.5-0.5-0.9-1.1-1.1-1.9
		c-0.3-0.8-0.4-1.6-0.4-2.6c0-0.9,0.1-1.8,0.4-2.6c0.3-0.8,0.7-1.5,1.2-2c0.5-0.6,1.2-1,2-1.3c0.8-0.3,1.7-0.5,2.7-0.5
		c1,0,1.9,0.1,2.7,0.2c0.9,0.1,1.6,0.3,2.2,0.5V221.5z M659.9,216.1c0,1.3,0.3,2.2,0.8,2.8c0.5,0.6,1.3,0.9,2.1,0.9
		c0.5,0,0.9-0.1,1.3-0.2c0.4-0.1,0.8-0.3,1-0.5v-6.6c-0.2,0-0.5-0.1-0.8-0.1c-0.3,0-0.7-0.1-1.2-0.1c-1.1,0-1.9,0.4-2.5,1.1
		C660.2,214,659.9,214.9,659.9,216.1z"/>
	<path class="st1" d="M680.9,222.8c-0.8-1.7-1.7-3.6-2.5-5.8c-0.9-2.2-1.6-4.5-2.3-7h3.2c0.2,0.7,0.4,1.5,0.6,2.3
		c0.2,0.8,0.5,1.6,0.8,2.5c0.3,0.8,0.5,1.6,0.8,2.4c0.3,0.8,0.6,1.5,0.8,2.1c0.2-0.6,0.5-1.3,0.8-2.1c0.3-0.8,0.6-1.6,0.8-2.4
		c0.3-0.8,0.5-1.6,0.8-2.5c0.2-0.8,0.5-1.6,0.6-2.3h3.1c-0.7,2.5-1.5,4.8-2.3,7c-0.9,2.2-1.7,4.1-2.5,5.8H680.9z"/>
	<path class="st1" d="M694.7,209.7c1,0,1.8,0.1,2.5,0.4c0.7,0.2,1.2,0.6,1.6,1c0.4,0.4,0.7,1,0.9,1.6c0.2,0.6,0.3,1.3,0.3,2.1v7.8
		c-0.5,0.1-1.1,0.2-2.1,0.4c-0.9,0.1-2,0.2-3.1,0.2c-0.8,0-1.5-0.1-2.1-0.2c-0.6-0.1-1.2-0.4-1.6-0.7c-0.4-0.3-0.8-0.7-1.1-1.3
		c-0.3-0.5-0.4-1.2-0.4-1.9c0-0.7,0.1-1.4,0.4-1.9c0.3-0.5,0.7-0.9,1.2-1.2c0.5-0.3,1.1-0.5,1.7-0.7c0.6-0.1,1.3-0.2,2-0.2
		c0.3,0,0.7,0,1,0.1c0.4,0,0.7,0.1,1.1,0.2v-0.5c0-0.3,0-0.7-0.1-1c-0.1-0.3-0.2-0.6-0.4-0.8c-0.2-0.2-0.5-0.4-0.8-0.6
		c-0.3-0.1-0.8-0.2-1.3-0.2c-0.7,0-1.3,0-1.9,0.1c-0.6,0.1-1,0.2-1.4,0.3l-0.4-2.4c0.4-0.1,0.9-0.3,1.6-0.4
		C693.2,209.8,693.9,209.7,694.7,209.7z M695,220.7c0.9,0,1.6,0,2.1-0.1v-3.3c-0.2,0-0.4-0.1-0.7-0.1c-0.3,0-0.7-0.1-1-0.1
		c-0.3,0-0.7,0-1,0.1c-0.3,0-0.6,0.1-0.9,0.3c-0.3,0.1-0.5,0.3-0.6,0.6c-0.2,0.2-0.2,0.5-0.2,0.9c0,0.7,0.2,1.2,0.7,1.5
		C693.6,220.6,694.2,220.7,695,220.7z"/>
	<path class="st1" d="M703.5,210.4c0.6-0.2,1.3-0.3,2.2-0.5c0.9-0.1,1.9-0.2,3-0.2c1,0,1.9,0.1,2.6,0.4c0.7,0.3,1.3,0.7,1.7,1.2
		c0.4,0.5,0.7,1.1,0.9,1.9c0.2,0.7,0.3,1.5,0.3,2.4v7.2h-3v-6.7c0-0.7,0-1.3-0.1-1.7c-0.1-0.5-0.2-0.9-0.4-1.2
		c-0.2-0.3-0.5-0.5-0.8-0.7c-0.4-0.1-0.8-0.2-1.3-0.2c-0.4,0-0.8,0-1.2,0.1c-0.4,0-0.7,0.1-0.9,0.1v10.3h-3V210.4z"/>
</g>
<g>
	<path class="st1" d="M138.1,223c-2.5-4.3-5.4-8.9-8.5-13.8c-3.1-4.9-6.4-9.8-9.8-14.8c-3.4-5-6.8-9.8-10.3-14.5
		c-3.5-4.7-6.8-8.9-9.9-12.6V223H85.7v-77.8h11.6c3,3.1,6.2,6.9,9.7,11.2c3.4,4.3,6.9,8.8,10.4,13.4c3.5,4.6,6.8,9.3,10.1,14
		c3.3,4.7,6.2,9,8.7,13.1v-51.6h14V223H138.1z"/>
	<path class="st1" d="M191,223c-5.6-12.1-11-24.8-16.2-38.1c-5.2-13.2-10.1-26.5-14.5-39.7h15.6c1.8,5.2,3.6,10.6,5.5,16.1
		c1.9,5.5,3.8,10.8,5.6,16.1c1.9,5.3,3.8,10.4,5.6,15.3c1.9,4.9,3.7,9.5,5.5,13.6c1.7-4.1,3.5-8.6,5.4-13.5c1.9-4.9,3.8-10,5.7-15.3
		c1.9-5.3,3.8-10.7,5.7-16.2c1.9-5.5,3.7-10.8,5.4-16.1h15.2c-4.6,13.2-9.5,26.5-14.6,39.7c-5.2,13.2-10.6,25.9-16.2,38.1H191z"/>
	<path class="st1" d="M280.1,155.9c-8,0-14.1,2.5-18.4,7.5c-4.2,5-6.3,11.9-6.3,20.7c0,4.2,0.5,8,1.5,11.5c1,3.5,2.5,6.5,4.5,8.9
		c2,2.5,4.5,4.4,7.4,5.8c3,1.4,6.4,2.1,10.4,2.1c2.5,0,4.6-0.1,6.4-0.3c1.8-0.2,3.2-0.4,4.3-0.7v-28h14.1v37.4
		c-1.9,0.7-5.2,1.6-9.9,2.5c-4.6,0.9-10,1.3-16.1,1.3c-5.6,0-10.7-0.9-15.4-2.7c-4.6-1.8-8.6-4.4-11.8-7.9
		c-3.3-3.4-5.8-7.7-7.6-12.7c-1.8-5-2.7-10.8-2.7-17.3c0-6.5,1-12.3,3-17.3c2-5,4.7-9.3,8.1-12.7c3.4-3.5,7.5-6.1,12.1-7.9
		c4.6-1.8,9.6-2.7,14.8-2.7c3.6,0,6.8,0.2,9.6,0.7c2.8,0.5,5.2,1,7.2,1.6c2,0.6,3.7,1.2,5,1.9c1.3,0.7,2.2,1.2,2.8,1.5l-4.3,11.6
		c-2.2-1.3-5-2.5-8.4-3.4C287.3,156.4,283.8,155.9,280.1,155.9z"/>
	<path class="st1" d="M368.4,145.2h14.1V223h-14.1v-34.5h-33.8V223h-14.1v-77.8h14.1v31.1h33.8V145.2z"/>
</g>
</svg>
